# xmcd
#
# Track frame offsets:
#	150
#	13677
#	36068
#	57368
#	74151
#	90333
#	111943
#	128022
#	148680
#	162243
#	173133
#	194198
#	214234
#	224107
#	237366
#
# Disc length: 3318 seconds
#
# Revision: 0
# Processed by: cddbd v1.5.2PL0 Copyright (c) Steve Scherf et al.
# Submitted via: dBpowerAMP V4.0
#
DISCID=eb0cf40f
DTITLE=Barry Denyer and Willie Salomon - The Basement Sessions
DYEAR=2001
DGENRE=Blues
TTITLE0=Warm It Up To Me
TTITLE1=When You Got A Good Friend
TTITLE2=Lonesome Star Blues
TTITLE3=Rope Stretchin' Blues
TTITLE4=J and L Blues
TTITLE5=Me And The Devil Blues
TTITLE6=One Meat Ball
TTITLE7=Missisippi Blues
TTITLE8=Crou' Jane
TTITLE9=Harry Lime Theme
TTITLE10=Sweet Little Angel
TTITLE11=Richland Woman Blues
TTITLE12=Poker Woman Blues
TTITLE13=Barrelhouse Blues
TTITLE14=Carolina Rag
EXTD=
EXTT0=
EXTT1=
EXTT2=
EXTT3=
EXTT4=
EXTT5=
EXTT6=
EXTT7=
EXTT8=
EXTT9=
EXTT10=
EXTT11=
EXTT12=
EXTT13=
EXTT14=
PLAYORDER=
